<mxfile host="app.diagrams.net" modified="2021-12-09T14:56:09.838Z" agent="5.0 (Windows NT 10.0; Win64; x64) AppleWebKit/537.36 (KHTML, like Gecko) Chrome/96.0.4664.45 Safari/537.36" etag="rmH0cXjsV2RWp4zB4wN0" version="15.9.4" type="github">
  <diagram id="ZPTWkBjtigFiW71l8T93" name="第 1 页">
    <mxGraphModel dx="981" dy="552" grid="1" gridSize="10" guides="1" tooltips="1" connect="1" arrows="1" fold="1" page="1" pageScale="1" pageWidth="827" pageHeight="1169" math="0" shadow="0">
      <root>
        <mxCell id="0" />
        <mxCell id="1" parent="0" />
      </root>
    </mxGraphModel>
  </diagram>
</mxfile>
